<svg xmlns="http://www.w3.org/2000/svg" width="1919.75" height="46.426" viewBox="0 0 1919.75 46.426">
  <path id="Path_3" data-name="Path 3" d="M4390,2159.98H2471.25V2135.9c26.2.419,53.523.631,81.224.631,80.978,0,165.487-1.809,237.959-5.094q20.314-.921,43.086-1.981h.02c65.186-3.018,146.312-6.773,233.508-9.737,102.276-3.476,191.847-5.166,273.832-5.166,35.044,0,68.943.32,100.758.952,34.122.677,66.913,1.733,97.461,3.138,54.977,2.529,167.129,7.364,300.552,11.335,59.675,1.776,116.548,3.163,169.042,4.122,58.818,1.075,112.651,1.619,160,1.619,104.253,0,178.71-2.617,221.3-7.779v32.038Z" transform="translate(-2470.75 -2114.053)" fill="#813588" stroke="rgba(0,0,0,0)" stroke-width="1"/>
</svg>
